<svg width="1368" height="912" viewBox="0 0 1368 912" fill="none" xmlns="http://www.w3.org/2000/svg">
<g clip-path="url(#clip0)">
<path d="M1335.13 910.357C1335.13 911.774 1333.98 912.923 1332.57 912.923C1331.15 912.923 1330 911.774 1330 910.357C1330 908.94 1331.15 907.791 1332.57 907.791C1333.98 907.791 1335.13 908.94 1335.13 910.357Z" fill="#EEC9D0"/>
<path d="M1335.13 920.621C1335.13 922.038 1333.98 923.187 1332.57 923.187C1331.15 923.187 1330 922.038 1330 920.621C1330 919.204 1331.15 918.055 1332.57 918.055C1333.98 918.055 1335.13 919.204 1335.13 920.621Z" fill="#EEC9D0"/>
<path d="M1335.13 930.885C1335.13 932.302 1333.98 933.451 1332.57 933.451C1331.15 933.451 1330 932.302 1330 930.885C1330 929.468 1331.15 928.319 1332.57 928.319C1333.98 928.319 1335.13 929.468 1335.13 930.885Z" fill="#EEC9D0"/>
<path d="M1335.13 941.148C1335.13 942.566 1333.98 943.714 1332.57 943.714C1331.15 943.714 1330 942.566 1330 941.148C1330 939.731 1331.15 938.583 1332.57 938.583C1333.98 938.583 1335.13 939.731 1335.13 941.148Z" fill="#EEC9D0"/>
<path d="M1345.4 910.357C1345.4 911.774 1344.25 912.923 1342.83 912.923C1341.41 912.923 1340.26 911.774 1340.26 910.357C1340.26 908.94 1341.41 907.791 1342.83 907.791C1344.25 907.791 1345.4 908.94 1345.4 910.357Z" fill="#EEC9D0"/>
<path d="M1345.4 920.621C1345.4 922.038 1344.25 923.187 1342.83 923.187C1341.41 923.187 1340.26 922.038 1340.26 920.621C1340.26 919.204 1341.41 918.055 1342.83 918.055C1344.25 918.055 1345.4 919.204 1345.4 920.621Z" fill="#EEC9D0"/>
<path d="M1345.4 930.885C1345.4 932.302 1344.25 933.451 1342.83 933.451C1341.41 933.451 1340.26 932.302 1340.26 930.885C1340.26 929.468 1341.41 928.319 1342.83 928.319C1344.25 928.319 1345.4 929.468 1345.4 930.885Z" fill="#EEC9D0"/>
<path d="M1345.4 941.148C1345.4 942.566 1344.25 943.714 1342.83 943.714C1341.41 943.714 1340.26 942.566 1340.26 941.148C1340.26 939.731 1341.41 938.583 1342.83 938.583C1344.25 938.583 1345.4 939.731 1345.4 941.148Z" fill="#EEC9D0"/>
<path d="M1355.66 910.357C1355.66 911.774 1354.51 912.923 1353.09 912.923C1351.68 912.923 1350.53 911.774 1350.53 910.357C1350.53 908.94 1351.68 907.791 1353.09 907.791C1354.51 907.791 1355.66 908.94 1355.66 910.357Z" fill="#EEC9D0"/>
<path d="M1355.66 920.621C1355.66 922.038 1354.51 923.187 1353.09 923.187C1351.68 923.187 1350.53 922.038 1350.53 920.621C1350.53 919.204 1351.68 918.055 1353.09 918.055C1354.51 918.055 1355.66 919.204 1355.66 920.621Z" fill="#EEC9D0"/>
<path d="M1355.66 930.885C1355.66 932.302 1354.51 933.451 1353.09 933.451C1351.68 933.451 1350.53 932.302 1350.53 930.885C1350.53 929.468 1351.68 928.319 1353.09 928.319C1354.51 928.319 1355.66 929.468 1355.66 930.885Z" fill="#EEC9D0"/>
<path d="M1355.66 941.148C1355.66 942.566 1354.51 943.714 1353.09 943.714C1351.68 943.714 1350.53 942.566 1350.53 941.148C1350.53 939.731 1351.68 938.583 1353.09 938.583C1354.51 938.583 1355.66 939.731 1355.66 941.148Z" fill="#EEC9D0"/>
<path d="M1365.92 910.357C1365.92 911.774 1364.77 912.923 1363.36 912.923C1361.94 912.923 1360.79 911.774 1360.79 910.357C1360.79 908.94 1361.94 907.791 1363.36 907.791C1364.77 907.791 1365.92 908.94 1365.92 910.357Z" fill="#EEC9D0"/>
<path d="M1365.92 920.621C1365.92 922.038 1364.77 923.187 1363.36 923.187C1361.94 923.187 1360.79 922.038 1360.79 920.621C1360.79 919.204 1361.94 918.055 1363.36 918.055C1364.77 918.055 1365.92 919.204 1365.92 920.621Z" fill="#EEC9D0"/>
<path d="M1365.92 930.885C1365.92 932.302 1364.77 933.451 1363.36 933.451C1361.94 933.451 1360.79 932.302 1360.79 930.885C1360.79 929.468 1361.94 928.319 1363.36 928.319C1364.77 928.319 1365.92 929.468 1365.92 930.885Z" fill="#EEC9D0"/>
<path d="M1365.92 941.148C1365.92 942.566 1364.77 943.714 1363.36 943.714C1361.94 943.714 1360.79 942.566 1360.79 941.148C1360.79 939.731 1361.94 938.583 1363.36 938.583C1364.77 938.583 1365.92 939.731 1365.92 941.148Z" fill="#EEC9D0"/>
<path d="M1365.92 910.357C1365.92 911.774 1364.77 912.923 1363.36 912.923C1361.94 912.923 1360.79 911.774 1360.79 910.357C1360.79 908.94 1361.94 907.791 1363.36 907.791C1364.77 907.791 1365.92 908.94 1365.92 910.357Z" fill="#EEC9D0"/>
<path d="M1365.92 920.621C1365.92 922.038 1364.77 923.187 1363.36 923.187C1361.94 923.187 1360.79 922.038 1360.79 920.621C1360.79 919.204 1361.94 918.055 1363.36 918.055C1364.77 918.055 1365.92 919.204 1365.92 920.621Z" fill="#EEC9D0"/>
<path d="M1365.92 930.885C1365.92 932.302 1364.77 933.451 1363.36 933.451C1361.94 933.451 1360.79 932.302 1360.79 930.885C1360.79 929.468 1361.94 928.319 1363.36 928.319C1364.77 928.319 1365.92 929.468 1365.92 930.885Z" fill="#EEC9D0"/>
<path d="M1365.92 941.148C1365.92 942.566 1364.77 943.714 1363.36 943.714C1361.94 943.714 1360.79 942.566 1360.79 941.148C1360.79 939.731 1361.94 938.583 1363.36 938.583C1364.77 938.583 1365.92 939.731 1365.92 941.148Z" fill="#EEC9D0"/>
<path d="M1376.19 910.357C1376.19 911.774 1375.04 912.923 1373.62 912.923C1372.2 912.923 1371.05 911.774 1371.05 910.357C1371.05 908.94 1372.2 907.791 1373.62 907.791C1375.04 907.791 1376.19 908.94 1376.19 910.357Z" fill="#EEC9D0"/>
<path d="M1376.19 920.621C1376.19 922.038 1375.04 923.187 1373.62 923.187C1372.2 923.187 1371.05 922.038 1371.05 920.621C1371.05 919.204 1372.2 918.055 1373.62 918.055C1375.04 918.055 1376.19 919.204 1376.19 920.621Z" fill="#EEC9D0"/>
<path d="M1376.19 930.885C1376.19 932.302 1375.04 933.451 1373.62 933.451C1372.2 933.451 1371.05 932.302 1371.05 930.885C1371.05 929.468 1372.2 928.319 1373.62 928.319C1375.04 928.319 1376.19 929.468 1376.19 930.885Z" fill="#EEC9D0"/>
<path d="M1376.19 941.148C1376.19 942.566 1375.04 943.714 1373.62 943.714C1372.2 943.714 1371.05 942.566 1371.05 941.148C1371.05 939.731 1372.2 938.583 1373.62 938.583C1375.04 938.583 1376.19 939.731 1376.19 941.148Z" fill="#EEC9D0"/>
<path d="M1386.45 910.357C1386.45 911.774 1385.3 912.923 1383.88 912.923C1382.47 912.923 1381.32 911.774 1381.32 910.357C1381.32 908.94 1382.47 907.791 1383.88 907.791C1385.3 907.791 1386.45 908.94 1386.45 910.357Z" fill="#EEC9D0"/>
<path d="M1386.45 920.621C1386.45 922.038 1385.3 923.187 1383.88 923.187C1382.47 923.187 1381.32 922.038 1381.32 920.621C1381.32 919.204 1382.47 918.055 1383.88 918.055C1385.3 918.055 1386.45 919.204 1386.45 920.621Z" fill="#EEC9D0"/>
<path d="M1386.45 930.885C1386.45 932.302 1385.3 933.451 1383.88 933.451C1382.47 933.451 1381.32 932.302 1381.32 930.885C1381.32 929.468 1382.47 928.319 1383.88 928.319C1385.3 928.319 1386.45 929.468 1386.45 930.885Z" fill="#EEC9D0"/>
<path d="M1386.45 941.148C1386.45 942.566 1385.3 943.714 1383.88 943.714C1382.47 943.714 1381.32 942.566 1381.32 941.148C1381.32 939.731 1382.47 938.583 1383.88 938.583C1385.3 938.583 1386.45 939.731 1386.45 941.148Z" fill="#EEC9D0"/>
<path d="M1396.71 910.357C1396.71 911.774 1395.57 912.923 1394.15 912.923C1392.73 912.923 1391.58 911.774 1391.58 910.357C1391.58 908.94 1392.73 907.791 1394.15 907.791C1395.57 907.791 1396.71 908.94 1396.71 910.357Z" fill="#EEC9D0"/>
<path d="M1396.71 920.621C1396.71 922.038 1395.57 923.187 1394.15 923.187C1392.73 923.187 1391.58 922.038 1391.58 920.621C1391.58 919.204 1392.73 918.055 1394.15 918.055C1395.57 918.055 1396.71 919.204 1396.71 920.621Z" fill="#EEC9D0"/>
<path d="M1396.71 930.885C1396.71 932.302 1395.57 933.451 1394.15 933.451C1392.73 933.451 1391.58 932.302 1391.58 930.885C1391.58 929.468 1392.73 928.319 1394.15 928.319C1395.57 928.319 1396.71 929.468 1396.71 930.885Z" fill="#EEC9D0"/>
<path d="M1396.71 941.148C1396.71 942.566 1395.57 943.714 1394.15 943.714C1392.73 943.714 1391.58 942.566 1391.58 941.148C1391.58 939.731 1392.73 938.583 1394.15 938.583C1395.57 938.583 1396.71 939.731 1396.71 941.148Z" fill="#EEC9D0"/>
<path d="M1365.92 879.566C1365.92 880.983 1364.77 882.132 1363.36 882.132C1361.94 882.132 1360.79 880.983 1360.79 879.566C1360.79 878.149 1361.94 877 1363.36 877C1364.77 877 1365.92 878.149 1365.92 879.566Z" fill="#EEC9D0"/>
<path d="M1365.92 889.83C1365.92 891.247 1364.78 892.396 1363.36 892.396C1361.94 892.396 1360.79 891.247 1360.79 889.83C1360.79 888.413 1361.94 887.264 1363.36 887.264C1364.78 887.264 1365.92 888.413 1365.92 889.83Z" fill="#EEC9D0"/>
<path d="M1365.92 900.093C1365.92 901.511 1364.78 902.659 1363.36 902.659C1361.94 902.659 1360.79 901.511 1360.79 900.093C1360.79 898.676 1361.94 897.528 1363.36 897.528C1364.78 897.528 1365.92 898.676 1365.92 900.093Z" fill="#EEC9D0"/>
<path d="M1365.92 910.357C1365.92 911.774 1364.78 912.923 1363.36 912.923C1361.94 912.923 1360.79 911.774 1360.79 910.357C1360.79 908.94 1361.94 907.791 1363.36 907.791C1364.78 907.791 1365.92 908.94 1365.92 910.357Z" fill="#EEC9D0"/>
<path d="M1376.19 879.566C1376.19 880.983 1375.04 882.132 1373.62 882.132C1372.2 882.132 1371.06 880.983 1371.06 879.566C1371.06 878.149 1372.2 877 1373.62 877C1375.04 877 1376.19 878.149 1376.19 879.566Z" fill="#EEC9D0"/>
<path d="M1376.19 889.83C1376.19 891.247 1375.04 892.396 1373.62 892.396C1372.2 892.396 1371.06 891.247 1371.06 889.83C1371.06 888.413 1372.2 887.264 1373.62 887.264C1375.04 887.264 1376.19 888.413 1376.19 889.83Z" fill="#EEC9D0"/>
<path d="M1376.19 900.093C1376.19 901.511 1375.04 902.659 1373.62 902.659C1372.2 902.659 1371.06 901.511 1371.06 900.093C1371.06 898.676 1372.2 897.528 1373.62 897.528C1375.04 897.528 1376.19 898.676 1376.19 900.093Z" fill="#EEC9D0"/>
<path d="M1376.19 910.357C1376.19 911.774 1375.04 912.923 1373.62 912.923C1372.2 912.923 1371.05 911.774 1371.05 910.357C1371.05 908.94 1372.2 907.791 1373.62 907.791C1375.04 907.791 1376.19 908.94 1376.19 910.357Z" fill="#EEC9D0"/>
<path d="M1386.45 879.566C1386.45 880.983 1385.3 882.132 1383.88 882.132C1382.47 882.132 1381.32 880.983 1381.32 879.566C1381.32 878.149 1382.47 877 1383.88 877C1385.3 877 1386.45 878.149 1386.45 879.566Z" fill="#EEC9D0"/>
<path d="M1386.45 889.83C1386.45 891.247 1385.3 892.396 1383.88 892.396C1382.47 892.396 1381.32 891.247 1381.32 889.83C1381.32 888.413 1382.47 887.264 1383.88 887.264C1385.3 887.264 1386.45 888.413 1386.45 889.83Z" fill="#EEC9D0"/>
<path d="M1386.45 900.093C1386.45 901.511 1385.3 902.659 1383.88 902.659C1382.47 902.659 1381.32 901.511 1381.32 900.093C1381.32 898.676 1382.47 897.528 1383.88 897.528C1385.3 897.528 1386.45 898.676 1386.45 900.093Z" fill="#EEC9D0"/>
<path d="M1386.45 910.357C1386.45 911.774 1385.3 912.923 1383.88 912.923C1382.47 912.923 1381.32 911.774 1381.32 910.357C1381.32 908.94 1382.47 907.791 1383.88 907.791C1385.3 907.791 1386.45 908.94 1386.45 910.357Z" fill="#EEC9D0"/>
<path d="M1396.71 879.566C1396.71 880.983 1395.57 882.132 1394.15 882.132C1392.73 882.132 1391.58 880.983 1391.58 879.566C1391.58 878.149 1392.73 877 1394.15 877C1395.57 877 1396.71 878.149 1396.71 879.566Z" fill="#EEC9D0"/>
<path d="M1396.71 889.83C1396.71 891.247 1395.57 892.396 1394.15 892.396C1392.73 892.396 1391.58 891.247 1391.58 889.83C1391.58 888.413 1392.73 887.264 1394.15 887.264C1395.57 887.264 1396.71 888.413 1396.71 889.83Z" fill="#EEC9D0"/>
<path d="M1396.71 900.093C1396.71 901.511 1395.57 902.659 1394.15 902.659C1392.73 902.659 1391.58 901.511 1391.58 900.093C1391.58 898.676 1392.73 897.528 1394.15 897.528C1395.57 897.528 1396.71 898.676 1396.71 900.093Z" fill="#EEC9D0"/>
<path d="M1396.71 910.357C1396.71 911.774 1395.57 912.923 1394.15 912.923C1392.73 912.923 1391.58 911.774 1391.58 910.357C1391.58 908.94 1392.73 907.791 1394.15 907.791C1395.57 907.791 1396.71 908.94 1396.71 910.357Z" fill="#EEC9D0"/>
<path d="M1335.13 879.566C1335.13 880.983 1333.98 882.132 1332.57 882.132C1331.15 882.132 1330 880.983 1330 879.566C1330 878.149 1331.15 877 1332.57 877C1333.98 877 1335.13 878.149 1335.13 879.566Z" fill="#EEC9D0"/>
<path d="M1335.13 889.83C1335.13 891.247 1333.98 892.396 1332.57 892.396C1331.15 892.396 1330 891.247 1330 889.83C1330 888.413 1331.15 887.264 1332.57 887.264C1333.98 887.264 1335.13 888.413 1335.13 889.83Z" fill="#EEC9D0"/>
<path d="M1335.13 900.093C1335.13 901.511 1333.98 902.659 1332.57 902.659C1331.15 902.659 1330 901.511 1330 900.093C1330 898.676 1331.15 897.528 1332.57 897.528C1333.98 897.528 1335.13 898.676 1335.13 900.093Z" fill="#EEC9D0"/>
<path d="M1335.13 910.357C1335.13 911.774 1333.98 912.923 1332.57 912.923C1331.15 912.923 1330 911.774 1330 910.357C1330 908.94 1331.15 907.791 1332.57 907.791C1333.98 907.791 1335.13 908.94 1335.13 910.357Z" fill="#EEC9D0"/>
<path d="M1345.4 879.566C1345.4 880.983 1344.25 882.132 1342.83 882.132C1341.41 882.132 1340.26 880.983 1340.26 879.566C1340.26 878.149 1341.41 877 1342.83 877C1344.25 877 1345.4 878.149 1345.4 879.566Z" fill="#EEC9D0"/>
<path d="M1345.4 889.83C1345.4 891.247 1344.25 892.396 1342.83 892.396C1341.41 892.396 1340.26 891.247 1340.26 889.83C1340.26 888.413 1341.41 887.264 1342.83 887.264C1344.25 887.264 1345.4 888.413 1345.4 889.83Z" fill="#EEC9D0"/>
<path d="M1345.4 900.093C1345.4 901.511 1344.25 902.659 1342.83 902.659C1341.41 902.659 1340.26 901.511 1340.26 900.093C1340.26 898.676 1341.41 897.528 1342.83 897.528C1344.25 897.528 1345.4 898.676 1345.4 900.093Z" fill="#EEC9D0"/>
<path d="M1345.4 910.357C1345.4 911.774 1344.25 912.923 1342.83 912.923C1341.41 912.923 1340.26 911.774 1340.26 910.357C1340.26 908.94 1341.41 907.791 1342.83 907.791C1344.25 907.791 1345.4 908.94 1345.4 910.357Z" fill="#EEC9D0"/>
<path d="M1355.66 879.566C1355.66 880.983 1354.51 882.132 1353.09 882.132C1351.68 882.132 1350.53 880.983 1350.53 879.566C1350.53 878.149 1351.68 877 1353.09 877C1354.51 877 1355.66 878.149 1355.66 879.566Z" fill="#EEC9D0"/>
<path d="M1355.66 889.83C1355.66 891.247 1354.51 892.396 1353.09 892.396C1351.68 892.396 1350.53 891.247 1350.53 889.83C1350.53 888.413 1351.68 887.264 1353.09 887.264C1354.51 887.264 1355.66 888.413 1355.66 889.83Z" fill="#EEC9D0"/>
<path d="M1355.66 900.093C1355.66 901.511 1354.51 902.659 1353.09 902.659C1351.68 902.659 1350.53 901.511 1350.53 900.093C1350.53 898.676 1351.68 897.528 1353.09 897.528C1354.51 897.528 1355.66 898.676 1355.66 900.093Z" fill="#EEC9D0"/>
<path d="M1355.66 910.357C1355.66 911.774 1354.51 912.923 1353.09 912.923C1351.68 912.923 1350.53 911.774 1350.53 910.357C1350.53 908.94 1351.68 907.791 1353.09 907.791C1354.51 907.791 1355.66 908.94 1355.66 910.357Z" fill="#EEC9D0"/>
<path d="M1365.92 879.566C1365.92 880.983 1364.77 882.132 1363.36 882.132C1361.94 882.132 1360.79 880.983 1360.79 879.566C1360.79 878.149 1361.94 877 1363.36 877C1364.77 877 1365.92 878.149 1365.92 879.566Z" fill="#EEC9D0"/>
<path d="M1365.92 889.83C1365.92 891.247 1364.78 892.396 1363.36 892.396C1361.94 892.396 1360.79 891.247 1360.79 889.83C1360.79 888.413 1361.94 887.264 1363.36 887.264C1364.78 887.264 1365.92 888.413 1365.92 889.83Z" fill="#EEC9D0"/>
<path d="M1365.92 900.093C1365.92 901.511 1364.78 902.659 1363.36 902.659C1361.94 902.659 1360.79 901.511 1360.79 900.093C1360.79 898.676 1361.94 897.528 1363.36 897.528C1364.78 897.528 1365.92 898.676 1365.92 900.093Z" fill="#EEC9D0"/>
<path d="M1365.92 910.357C1365.92 911.774 1364.77 912.923 1363.36 912.923C1361.94 912.923 1360.79 911.774 1360.79 910.357C1360.79 908.94 1361.94 907.791 1363.36 907.791C1364.77 907.791 1365.92 908.94 1365.92 910.357Z" fill="#EEC9D0"/>
<path d="M-22.3297 906.357C-22.3297 907.774 -23.3752 908.923 -24.6648 908.923C-25.9545 908.923 -27 907.774 -27 906.357C-27 904.94 -25.9545 903.791 -24.6648 903.791C-23.3752 903.791 -22.3297 904.94 -22.3297 906.357Z" fill="#C4C4C4"/>
<path d="M-22.3292 916.621C-22.3292 918.038 -23.3747 919.187 -24.6644 919.187C-25.9541 919.187 -26.9996 918.038 -26.9996 916.621C-26.9996 915.204 -25.9541 914.055 -24.6644 914.055C-23.3747 914.055 -22.3292 915.204 -22.3292 916.621Z" fill="#C4C4C4"/>
<path d="M-22.3292 926.885C-22.3292 928.302 -23.3747 929.451 -24.6644 929.451C-25.9541 929.451 -26.9996 928.302 -26.9996 926.885C-26.9996 925.468 -25.9541 924.319 -24.6644 924.319C-23.3747 924.319 -22.3292 925.468 -22.3292 926.885Z" fill="#C4C4C4"/>
<path d="M-22.3292 937.148C-22.3292 938.566 -23.3747 939.714 -24.6644 939.714C-25.9541 939.714 -26.9996 938.566 -26.9996 937.148C-26.9996 935.731 -25.9541 934.583 -24.6644 934.583C-23.3747 934.583 -22.3292 935.731 -22.3292 937.148Z" fill="#C4C4C4"/>
<path d="M-12.989 906.357C-12.989 907.774 -14.0345 908.923 -15.3241 908.923C-16.6138 908.923 -17.6593 907.774 -17.6593 906.357C-17.6593 904.94 -16.6138 903.791 -15.3241 903.791C-14.0345 903.791 -12.989 904.94 -12.989 906.357Z" fill="#C4C4C4"/>
<path d="M-12.989 916.621C-12.989 918.038 -14.0345 919.187 -15.3241 919.187C-16.6138 919.187 -17.6593 918.038 -17.6593 916.621C-17.6593 915.204 -16.6138 914.055 -15.3241 914.055C-14.0345 914.055 -12.989 915.204 -12.989 916.621Z" fill="#C4C4C4"/>
<path d="M-12.989 926.885C-12.989 928.302 -14.0345 929.451 -15.3241 929.451C-16.6138 929.451 -17.6593 928.302 -17.6593 926.885C-17.6593 925.468 -16.6138 924.319 -15.3241 924.319C-14.0345 924.319 -12.989 925.468 -12.989 926.885Z" fill="#C4C4C4"/>
<path d="M-12.989 937.148C-12.989 938.566 -14.0345 939.714 -15.3241 939.714C-16.6138 939.714 -17.6593 938.566 -17.6593 937.148C-17.6593 935.731 -16.6138 934.583 -15.3241 934.583C-14.0345 934.583 -12.989 935.731 -12.989 937.148Z" fill="#C4C4C4"/>
<path d="M-3.6485 906.357C-3.6485 907.774 -4.69399 908.923 -5.98367 908.923C-7.27334 908.923 -8.31883 907.774 -8.31883 906.357C-8.31883 904.94 -7.27334 903.791 -5.98367 903.791C-4.69399 903.791 -3.6485 904.94 -3.6485 906.357Z" fill="#C4C4C4"/>
<path d="M-3.6485 916.621C-3.6485 918.038 -4.69399 919.187 -5.98367 919.187C-7.27334 919.187 -8.31883 918.038 -8.31883 916.621C-8.31883 915.204 -7.27334 914.055 -5.98367 914.055C-4.69399 914.055 -3.6485 915.204 -3.6485 916.621Z" fill="#C4C4C4"/>
<path d="M-3.6485 926.885C-3.6485 928.302 -4.69399 929.451 -5.98367 929.451C-7.27334 929.451 -8.31883 928.302 -8.31883 926.885C-8.31883 925.468 -7.27334 924.319 -5.98367 924.319C-4.69399 924.319 -3.6485 925.468 -3.6485 926.885Z" fill="#C4C4C4"/>
<path d="M-3.6485 937.148C-3.6485 938.566 -4.69399 939.714 -5.98367 939.714C-7.27334 939.714 -8.31883 938.566 -8.31883 937.148C-8.31883 935.731 -7.27334 934.583 -5.98367 934.583C-4.69399 934.583 -3.6485 935.731 -3.6485 937.148Z" fill="#C4C4C4"/>
<path d="M5.69219 906.357C5.69219 907.774 4.6467 908.923 3.35703 908.923C2.06735 908.923 1.02187 907.774 1.02187 906.357C1.02187 904.94 2.06735 903.791 3.35703 903.791C4.6467 903.791 5.69219 904.94 5.69219 906.357Z" fill="#C4C4C4"/>
<path d="M5.69219 916.621C5.69219 918.038 4.6467 919.187 3.35703 919.187C2.06735 919.187 1.02187 918.038 1.02187 916.621C1.02187 915.204 2.06735 914.055 3.35703 914.055C4.6467 914.055 5.69219 915.204 5.69219 916.621Z" fill="#C4C4C4"/>
<path d="M5.69219 926.885C5.69219 928.302 4.6467 929.451 3.35703 929.451C2.06735 929.451 1.02187 928.302 1.02187 926.885C1.02187 925.468 2.06735 924.319 3.35703 924.319C4.6467 924.319 5.69219 925.468 5.69219 926.885Z" fill="#C4C4C4"/>
<path d="M5.69219 937.148C5.69219 938.566 4.6467 939.714 3.35703 939.714C2.06735 939.714 1.02187 938.566 1.02187 937.148C1.02187 935.731 2.06735 934.583 3.35703 934.583C4.6467 934.583 5.69219 935.731 5.69219 937.148Z" fill="#C4C4C4"/>
<path d="M5.69219 906.357C5.69219 907.774 4.6467 908.923 3.35703 908.923C2.06735 908.923 1.02187 907.774 1.02187 906.357C1.02187 904.94 2.06735 903.791 3.35703 903.791C4.6467 903.791 5.69219 904.94 5.69219 906.357Z" fill="#C4C4C4"/>
<path d="M5.69219 916.621C5.69219 918.038 4.6467 919.187 3.35703 919.187C2.06735 919.187 1.02187 918.038 1.02187 916.621C1.02187 915.204 2.06735 914.055 3.35703 914.055C4.6467 914.055 5.69219 915.204 5.69219 916.621Z" fill="#C4C4C4"/>
<path d="M5.69219 926.885C5.69219 928.302 4.6467 929.451 3.35703 929.451C2.06735 929.451 1.02187 928.302 1.02187 926.885C1.02187 925.468 2.06735 924.319 3.35703 924.319C4.6467 924.319 5.69219 925.468 5.69219 926.885Z" fill="#C4C4C4"/>
<path d="M5.69219 937.148C5.69219 938.566 4.6467 939.714 3.35703 939.714C2.06735 939.714 1.02187 938.566 1.02187 937.148C1.02187 935.731 2.06735 934.583 3.35703 934.583C4.6467 934.583 5.69219 935.731 5.69219 937.148Z" fill="#C4C4C4"/>
<path d="M15.0329 906.357C15.0329 907.774 13.9874 908.923 12.6977 908.923C11.4081 908.923 10.3626 907.774 10.3626 906.357C10.3626 904.94 11.4081 903.791 12.6977 903.791C13.9874 903.791 15.0329 904.94 15.0329 906.357Z" fill="#C4C4C4"/>
<path d="M15.0329 916.621C15.0329 918.038 13.9874 919.187 12.6977 919.187C11.4081 919.187 10.3626 918.038 10.3626 916.621C10.3626 915.204 11.4081 914.055 12.6977 914.055C13.9874 914.055 15.0329 915.204 15.0329 916.621Z" fill="#C4C4C4"/>
<path d="M15.0329 926.885C15.0329 928.302 13.9874 929.451 12.6977 929.451C11.4081 929.451 10.3626 928.302 10.3626 926.885C10.3626 925.468 11.4081 924.319 12.6977 924.319C13.9874 924.319 15.0329 925.468 15.0329 926.885Z" fill="#C4C4C4"/>
<path d="M15.0329 937.148C15.0329 938.566 13.9874 939.714 12.6977 939.714C11.4081 939.714 10.3626 938.566 10.3626 937.148C10.3626 935.731 11.4081 934.583 12.6977 934.583C13.9874 934.583 15.0329 935.731 15.0329 937.148Z" fill="#C4C4C4"/>
<path d="M24.3734 906.357C24.3734 907.774 23.3279 908.923 22.0382 908.923C20.7485 908.923 19.703 907.774 19.703 906.357C19.703 904.94 20.7485 903.791 22.0382 903.791C23.3279 903.791 24.3734 904.94 24.3734 906.357Z" fill="#C4C4C4"/>
<path d="M24.3734 916.621C24.3734 918.038 23.3279 919.187 22.0382 919.187C20.7485 919.187 19.703 918.038 19.703 916.621C19.703 915.204 20.7485 914.055 22.0382 914.055C23.3279 914.055 24.3734 915.204 24.3734 916.621Z" fill="#C4C4C4"/>
<path d="M24.3734 926.885C24.3734 928.302 23.3279 929.451 22.0382 929.451C20.7485 929.451 19.703 928.302 19.703 926.885C19.703 925.468 20.7485 924.319 22.0382 924.319C23.3279 924.319 24.3734 925.468 24.3734 926.885Z" fill="#C4C4C4"/>
<path d="M24.3734 937.148C24.3734 938.566 23.3279 939.714 22.0382 939.714C20.7485 939.714 19.703 938.566 19.703 937.148C19.703 935.731 20.7485 934.583 22.0382 934.583C23.3279 934.583 24.3734 935.731 24.3734 937.148Z" fill="#C4C4C4"/>
<path d="M33.7141 906.357C33.7141 907.774 32.6686 908.923 31.3789 908.923C30.0892 908.923 29.0437 907.774 29.0437 906.357C29.0437 904.94 30.0892 903.791 31.3789 903.791C32.6686 903.791 33.7141 904.94 33.7141 906.357Z" fill="#C4C4C4"/>
<path d="M33.7141 916.621C33.7141 918.038 32.6686 919.187 31.3789 919.187C30.0892 919.187 29.0437 918.038 29.0437 916.621C29.0437 915.204 30.0892 914.055 31.3789 914.055C32.6686 914.055 33.7141 915.204 33.7141 916.621Z" fill="#C4C4C4"/>
<path d="M33.7141 926.885C33.7141 928.302 32.6686 929.451 31.3789 929.451C30.0892 929.451 29.0437 928.302 29.0437 926.885C29.0437 925.468 30.0892 924.319 31.3789 924.319C32.6686 924.319 33.7141 925.468 33.7141 926.885Z" fill="#C4C4C4"/>
<path d="M33.7141 937.148C33.7141 938.566 32.6686 939.714 31.3789 939.714C30.0892 939.714 29.0437 938.566 29.0437 937.148C29.0437 935.731 30.0892 934.583 31.3789 934.583C32.6686 934.583 33.7141 935.731 33.7141 937.148Z" fill="#C4C4C4"/>
<path d="M5.69264 875.566C5.69264 876.983 4.64715 878.132 3.35747 878.132C2.0678 878.132 1.02231 876.983 1.02231 875.566C1.02231 874.149 2.0678 873 3.35747 873C4.64715 873 5.69264 874.149 5.69264 875.566Z" fill="#C4C4C4"/>
<path d="M5.69308 885.83C5.69308 887.247 4.64759 888.396 3.35792 888.396C2.06824 888.396 1.02275 887.247 1.02275 885.83C1.02275 884.413 2.06824 883.264 3.35792 883.264C4.64759 883.264 5.69308 884.413 5.69308 885.83Z" fill="#C4C4C4"/>
<path d="M5.69308 896.093C5.69308 897.511 4.64759 898.659 3.35792 898.659C2.06824 898.659 1.02275 897.511 1.02275 896.093C1.02275 894.676 2.06824 893.528 3.35792 893.528C4.64759 893.528 5.69308 894.676 5.69308 896.093Z" fill="#C4C4C4"/>
<path d="M5.69308 906.357C5.69308 907.774 4.64759 908.923 3.35792 908.923C2.06824 908.923 1.02275 907.774 1.02275 906.357C1.02275 904.94 2.06824 903.791 3.35792 903.791C4.64759 903.791 5.69308 904.94 5.69308 906.357Z" fill="#C4C4C4"/>
<path d="M15.0333 875.566C15.0333 876.983 13.9878 878.132 12.6982 878.132C11.4085 878.132 10.363 876.983 10.363 875.566C10.363 874.149 11.4085 873 12.6982 873C13.9878 873 15.0333 874.149 15.0333 875.566Z" fill="#C4C4C4"/>
<path d="M15.0333 885.83C15.0333 887.247 13.9878 888.396 12.6982 888.396C11.4085 888.396 10.363 887.247 10.363 885.83C10.363 884.413 11.4085 883.264 12.6982 883.264C13.9878 883.264 15.0333 884.413 15.0333 885.83Z" fill="#C4C4C4"/>
<path d="M15.0333 896.093C15.0333 897.511 13.9878 898.659 12.6982 898.659C11.4085 898.659 10.363 897.511 10.363 896.093C10.363 894.676 11.4085 893.528 12.6982 893.528C13.9878 893.528 15.0333 894.676 15.0333 896.093Z" fill="#C4C4C4"/>
<path d="M15.0329 906.357C15.0329 907.774 13.9874 908.923 12.6977 908.923C11.4081 908.923 10.3626 907.774 10.3626 906.357C10.3626 904.94 11.4081 903.791 12.6977 903.791C13.9874 903.791 15.0329 904.94 15.0329 906.357Z" fill="#C4C4C4"/>
<path d="M24.3738 875.566C24.3738 876.983 23.3283 878.132 22.0386 878.132C20.749 878.132 19.7035 876.983 19.7035 875.566C19.7035 874.149 20.749 873 22.0386 873C23.3283 873 24.3738 874.149 24.3738 875.566Z" fill="#C4C4C4"/>
<path d="M24.3738 885.83C24.3738 887.247 23.3283 888.396 22.0386 888.396C20.749 888.396 19.7035 887.247 19.7035 885.83C19.7035 884.413 20.749 883.264 22.0386 883.264C23.3283 883.264 24.3738 884.413 24.3738 885.83Z" fill="#C4C4C4"/>
<path d="M24.3738 896.093C24.3738 897.511 23.3283 898.659 22.0386 898.659C20.749 898.659 19.7035 897.511 19.7035 896.093C19.7035 894.676 20.749 893.528 22.0386 893.528C23.3283 893.528 24.3738 894.676 24.3738 896.093Z" fill="#C4C4C4"/>
<path d="M24.3734 906.357C24.3734 907.774 23.3279 908.923 22.0382 908.923C20.7485 908.923 19.703 907.774 19.703 906.357C19.703 904.94 20.7485 903.791 22.0382 903.791C23.3279 903.791 24.3734 904.94 24.3734 906.357Z" fill="#C4C4C4"/>
<path d="M33.7145 875.566C33.7145 876.983 32.669 878.132 31.3793 878.132C30.0897 878.132 29.0442 876.983 29.0442 875.566C29.0442 874.149 30.0897 873 31.3793 873C32.669 873 33.7145 874.149 33.7145 875.566Z" fill="#C4C4C4"/>
<path d="M33.7145 885.83C33.7145 887.247 32.669 888.396 31.3793 888.396C30.0897 888.396 29.0442 887.247 29.0442 885.83C29.0442 884.413 30.0897 883.264 31.3793 883.264C32.669 883.264 33.7145 884.413 33.7145 885.83Z" fill="#C4C4C4"/>
<path d="M33.7145 896.093C33.7145 897.511 32.669 898.659 31.3793 898.659C30.0897 898.659 29.0442 897.511 29.0442 896.093C29.0442 894.676 30.0897 893.528 31.3793 893.528C32.669 893.528 33.7145 894.676 33.7145 896.093Z" fill="#C4C4C4"/>
<path d="M33.7141 906.357C33.7141 907.774 32.6686 908.923 31.3789 908.923C30.0892 908.923 29.0437 907.774 29.0437 906.357C29.0437 904.94 30.0892 903.791 31.3789 903.791C32.6686 903.791 33.7141 904.94 33.7141 906.357Z" fill="#C4C4C4"/>
<path d="M-22.3297 875.566C-22.3297 876.983 -23.3752 878.132 -24.6648 878.132C-25.9545 878.132 -27 876.983 -27 875.566C-27 874.149 -25.9545 873 -24.6648 873C-23.3752 873 -22.3297 874.149 -22.3297 875.566Z" fill="#C4C4C4"/>
<path d="M-22.3292 885.83C-22.3292 887.247 -23.3747 888.396 -24.6644 888.396C-25.9541 888.396 -26.9996 887.247 -26.9996 885.83C-26.9996 884.413 -25.9541 883.264 -24.6644 883.264C-23.3747 883.264 -22.3292 884.413 -22.3292 885.83Z" fill="#C4C4C4"/>
<path d="M-22.3292 896.093C-22.3292 897.511 -23.3747 898.659 -24.6644 898.659C-25.9541 898.659 -26.9996 897.511 -26.9996 896.093C-26.9996 894.676 -25.9541 893.528 -24.6644 893.528C-23.3747 893.528 -22.3292 894.676 -22.3292 896.093Z" fill="#C4C4C4"/>
<path d="M-22.3297 906.357C-22.3297 907.774 -23.3752 908.923 -24.6648 908.923C-25.9545 908.923 -27 907.774 -27 906.357C-27 904.94 -25.9545 903.791 -24.6648 903.791C-23.3752 903.791 -22.3297 904.94 -22.3297 906.357Z" fill="#C4C4C4"/>
<path d="M-12.989 875.566C-12.989 876.983 -14.0345 878.132 -15.3241 878.132C-16.6138 878.132 -17.6593 876.983 -17.6593 875.566C-17.6593 874.149 -16.6138 873 -15.3241 873C-14.0345 873 -12.989 874.149 -12.989 875.566Z" fill="#C4C4C4"/>
<path d="M-12.989 885.83C-12.989 887.247 -14.0345 888.396 -15.3241 888.396C-16.6138 888.396 -17.6593 887.247 -17.6593 885.83C-17.6593 884.413 -16.6138 883.264 -15.3241 883.264C-14.0345 883.264 -12.989 884.413 -12.989 885.83Z" fill="#C4C4C4"/>
<path d="M-12.989 896.093C-12.989 897.511 -14.0345 898.659 -15.3241 898.659C-16.6138 898.659 -17.6593 897.511 -17.6593 896.093C-17.6593 894.676 -16.6138 893.528 -15.3241 893.528C-14.0345 893.528 -12.989 894.676 -12.989 896.093Z" fill="#C4C4C4"/>
<path d="M-12.989 906.357C-12.989 907.774 -14.0345 908.923 -15.3241 908.923C-16.6138 908.923 -17.6593 907.774 -17.6593 906.357C-17.6593 904.94 -16.6138 903.791 -15.3241 903.791C-14.0345 903.791 -12.989 904.94 -12.989 906.357Z" fill="#C4C4C4"/>
<path d="M-3.6485 875.566C-3.6485 876.983 -4.69399 878.132 -5.98367 878.132C-7.27334 878.132 -8.31883 876.983 -8.31883 875.566C-8.31883 874.149 -7.27334 873 -5.98367 873C-4.69399 873 -3.6485 874.149 -3.6485 875.566Z" fill="#C4C4C4"/>
<path d="M-3.6485 885.83C-3.6485 887.247 -4.69399 888.396 -5.98367 888.396C-7.27334 888.396 -8.31883 887.247 -8.31883 885.83C-8.31883 884.413 -7.27334 883.264 -5.98367 883.264C-4.69399 883.264 -3.6485 884.413 -3.6485 885.83Z" fill="#C4C4C4"/>
<path d="M-3.6485 896.093C-3.6485 897.511 -4.69399 898.659 -5.98367 898.659C-7.27334 898.659 -8.31883 897.511 -8.31883 896.093C-8.31883 894.676 -7.27334 893.528 -5.98367 893.528C-4.69399 893.528 -3.6485 894.676 -3.6485 896.093Z" fill="#C4C4C4"/>
<path d="M-3.6485 906.357C-3.6485 907.774 -4.69399 908.923 -5.98367 908.923C-7.27334 908.923 -8.31883 907.774 -8.31883 906.357C-8.31883 904.94 -7.27334 903.791 -5.98367 903.791C-4.69399 903.791 -3.6485 904.94 -3.6485 906.357Z" fill="#C4C4C4"/>
<path d="M5.69264 875.566C5.69264 876.983 4.64715 878.132 3.35747 878.132C2.0678 878.132 1.02231 876.983 1.02231 875.566C1.02231 874.149 2.0678 873 3.35747 873C4.64715 873 5.69264 874.149 5.69264 875.566Z" fill="#C4C4C4"/>
<path d="M5.69308 885.83C5.69308 887.247 4.64759 888.396 3.35792 888.396C2.06824 888.396 1.02275 887.247 1.02275 885.83C1.02275 884.413 2.06824 883.264 3.35792 883.264C4.64759 883.264 5.69308 884.413 5.69308 885.83Z" fill="#C4C4C4"/>
<path d="M5.69308 896.093C5.69308 897.511 4.64759 898.659 3.35792 898.659C2.06824 898.659 1.02275 897.511 1.02275 896.093C1.02275 894.676 2.06824 893.528 3.35792 893.528C4.64759 893.528 5.69308 894.676 5.69308 896.093Z" fill="#C4C4C4"/>
<path d="M5.69219 906.357C5.69219 907.774 4.6467 908.923 3.35703 908.923C2.06735 908.923 1.02187 907.774 1.02187 906.357C1.02187 904.94 2.06735 903.791 3.35703 903.791C4.6467 903.791 5.69219 904.94 5.69219 906.357Z" fill="#C4C4C4"/>
<circle cx="616.885" cy="378.214" r="0.88461" fill="#FFAABA"/>
<circle cx="616.885" cy="381.753" r="0.88461" fill="#FFAABA"/>
<circle cx="616.885" cy="385.291" r="0.88461" fill="#FFAABA"/>
<circle cx="616.885" cy="388.83" r="0.88461" fill="#FFAABA"/>
<circle cx="620.423" cy="378.215" r="0.88461" fill="#FFAABA"/>
<circle cx="620.423" cy="381.753" r="0.88461" fill="#FFAABA"/>
<circle cx="620.423" cy="385.291" r="0.88461" fill="#FFAABA"/>
<circle cx="620.423" cy="388.83" r="0.88461" fill="#FFAABA"/>
<circle cx="623.961" cy="378.215" r="0.88461" fill="#FFAABA"/>
<circle cx="623.961" cy="381.753" r="0.88461" fill="#FFAABA"/>
<circle cx="623.961" cy="385.291" r="0.88461" fill="#FFAABA"/>
<circle cx="623.961" cy="388.83" r="0.88461" fill="#FFAABA"/>
<circle cx="627.5" cy="378.215" r="0.88461" fill="#FFAABA"/>
<circle cx="627.5" cy="381.753" r="0.88461" fill="#FFAABA"/>
<circle cx="627.5" cy="385.291" r="0.88461" fill="#FFAABA"/>
<circle cx="627.5" cy="388.83" r="0.88461" fill="#FFAABA"/>
<circle cx="627.5" cy="378.214" r="0.88461" fill="#FFAABA"/>
<circle cx="627.5" cy="381.753" r="0.88461" fill="#FFAABA"/>
<circle cx="627.5" cy="385.291" r="0.88461" fill="#FFAABA"/>
<circle cx="627.5" cy="388.83" r="0.88461" fill="#FFAABA"/>
<circle cx="631.038" cy="378.215" r="0.88461" fill="#FFAABA"/>
<circle cx="631.038" cy="381.753" r="0.88461" fill="#FFAABA"/>
<circle cx="631.038" cy="385.291" r="0.88461" fill="#FFAABA"/>
<circle cx="631.038" cy="388.83" r="0.88461" fill="#FFAABA"/>
<circle cx="634.577" cy="378.215" r="0.88461" fill="#FFAABA"/>
<circle cx="634.577" cy="381.753" r="0.88461" fill="#FFAABA"/>
<circle cx="634.577" cy="385.291" r="0.88461" fill="#FFAABA"/>
<circle cx="634.577" cy="388.83" r="0.88461" fill="#FFAABA"/>
<circle cx="638.115" cy="378.215" r="0.88461" fill="#FFAABA"/>
<circle cx="638.115" cy="381.753" r="0.88461" fill="#FFAABA"/>
<circle cx="638.115" cy="385.291" r="0.88461" fill="#FFAABA"/>
<circle cx="638.115" cy="388.83" r="0.88461" fill="#FFAABA"/>
<circle cx="627.5" cy="367.599" r="0.88461" fill="#FFAABA"/>
<circle cx="627.5" cy="371.138" r="0.88461" fill="#FFAABA"/>
<circle cx="627.5" cy="374.676" r="0.88461" fill="#FFAABA"/>
<circle cx="627.5" cy="378.214" r="0.88461" fill="#FFAABA"/>
<circle cx="631.039" cy="367.599" r="0.88461" fill="#FFAABA"/>
<circle cx="631.039" cy="371.138" r="0.88461" fill="#FFAABA"/>
<circle cx="631.039" cy="374.676" r="0.88461" fill="#FFAABA"/>
<circle cx="631.039" cy="378.214" r="0.88461" fill="#FFAABA"/>
<circle cx="634.577" cy="367.599" r="0.88461" fill="#FFAABA"/>
<circle cx="634.577" cy="371.138" r="0.88461" fill="#FFAABA"/>
<circle cx="634.577" cy="374.676" r="0.88461" fill="#FFAABA"/>
<circle cx="634.577" cy="378.214" r="0.88461" fill="#FFAABA"/>
<circle cx="638.115" cy="367.599" r="0.88461" fill="#FFAABA"/>
<circle cx="638.115" cy="371.138" r="0.88461" fill="#FFAABA"/>
<circle cx="638.115" cy="374.676" r="0.88461" fill="#FFAABA"/>
<circle cx="638.115" cy="378.214" r="0.88461" fill="#FFAABA"/>
<circle cx="616.885" cy="367.599" r="0.88461" fill="#FFAABA"/>
<circle cx="616.885" cy="371.138" r="0.88461" fill="#FFAABA"/>
<circle cx="616.885" cy="374.676" r="0.88461" fill="#FFAABA"/>
<circle cx="616.885" cy="378.214" r="0.88461" fill="#FFAABA"/>
<circle cx="620.423" cy="367.599" r="0.88461" fill="#FFAABA"/>
<circle cx="620.423" cy="371.138" r="0.88461" fill="#FFAABA"/>
<circle cx="620.423" cy="374.676" r="0.88461" fill="#FFAABA"/>
<circle cx="620.423" cy="378.214" r="0.88461" fill="#FFAABA"/>
<circle cx="623.961" cy="367.599" r="0.88461" fill="#FFAABA"/>
<circle cx="623.961" cy="371.138" r="0.88461" fill="#FFAABA"/>
<circle cx="623.961" cy="374.676" r="0.88461" fill="#FFAABA"/>
<circle cx="623.961" cy="378.214" r="0.88461" fill="#FFAABA"/>
<circle cx="627.5" cy="367.599" r="0.88461" fill="#FFAABA"/>
<circle cx="627.5" cy="371.138" r="0.88461" fill="#FFAABA"/>
<circle cx="627.5" cy="374.676" r="0.88461" fill="#FFAABA"/>
<circle cx="627.5" cy="378.214" r="0.88461" fill="#FFAABA"/>
<circle cx="1289.88" cy="658.5" r="0.88461" fill="#FF94A8"/>
<circle cx="1289.88" cy="662.038" r="0.88461" fill="#FF94A8"/>
<circle cx="1289.88" cy="665.577" r="0.88461" fill="#FF94A8"/>
<circle cx="1289.88" cy="669.115" r="0.88461" fill="#FF94A8"/>
<circle cx="1293.42" cy="658.5" r="0.88461" fill="#FF94A8"/>
<circle cx="1293.42" cy="662.038" r="0.88461" fill="#FF94A8"/>
<circle cx="1293.42" cy="665.577" r="0.88461" fill="#FF94A8"/>
<circle cx="1293.42" cy="669.115" r="0.88461" fill="#FF94A8"/>
<circle cx="1296.96" cy="658.5" r="0.88461" fill="#FF94A8"/>
<circle cx="1296.96" cy="662.038" r="0.88461" fill="#FF94A8"/>
<circle cx="1296.96" cy="665.577" r="0.88461" fill="#FF94A8"/>
<circle cx="1296.96" cy="669.115" r="0.88461" fill="#FF94A8"/>
<circle cx="1300.5" cy="658.5" r="0.88461" fill="#FF94A8"/>
<circle cx="1300.5" cy="662.038" r="0.88461" fill="#FF94A8"/>
<circle cx="1300.5" cy="665.577" r="0.88461" fill="#FF94A8"/>
<circle cx="1300.5" cy="669.115" r="0.88461" fill="#FF94A8"/>
<circle cx="1300.5" cy="658.5" r="0.88461" fill="#FF94A8"/>
<circle cx="1300.5" cy="662.038" r="0.88461" fill="#FF94A8"/>
<circle cx="1300.5" cy="665.577" r="0.88461" fill="#FF94A8"/>
<circle cx="1300.5" cy="669.115" r="0.88461" fill="#FF94A8"/>
<circle cx="1304.04" cy="658.5" r="0.88461" fill="#FF94A8"/>
<circle cx="1304.04" cy="662.038" r="0.88461" fill="#FF94A8"/>
<circle cx="1304.04" cy="665.577" r="0.88461" fill="#FF94A8"/>
<circle cx="1304.04" cy="669.115" r="0.88461" fill="#FF94A8"/>
<circle cx="1307.58" cy="658.5" r="0.88461" fill="#FF94A8"/>
<circle cx="1307.58" cy="662.038" r="0.88461" fill="#FF94A8"/>
<circle cx="1307.58" cy="665.577" r="0.88461" fill="#FF94A8"/>
<circle cx="1307.58" cy="669.115" r="0.88461" fill="#FF94A8"/>
<circle cx="1311.12" cy="658.5" r="0.88461" fill="#FF94A8"/>
<circle cx="1311.12" cy="662.038" r="0.88461" fill="#FF94A8"/>
<circle cx="1311.12" cy="665.577" r="0.88461" fill="#FF94A8"/>
<circle cx="1311.12" cy="669.115" r="0.88461" fill="#FF94A8"/>
<circle cx="1300.5" cy="647.885" r="0.88461" fill="#FF94A8"/>
<circle cx="1300.5" cy="651.423" r="0.88461" fill="#FF94A8"/>
<circle cx="1300.5" cy="654.961" r="0.88461" fill="#FF94A8"/>
<circle cx="1300.5" cy="658.5" r="0.88461" fill="#FF94A8"/>
<circle cx="1304.04" cy="647.885" r="0.88461" fill="#FF94A8"/>
<circle cx="1304.04" cy="651.423" r="0.88461" fill="#FF94A8"/>
<circle cx="1304.04" cy="654.961" r="0.88461" fill="#FF94A8"/>
<circle cx="1304.04" cy="658.5" r="0.88461" fill="#FF94A8"/>
<circle cx="1307.58" cy="647.885" r="0.88461" fill="#FF94A8"/>
<circle cx="1307.58" cy="651.423" r="0.88461" fill="#FF94A8"/>
<circle cx="1307.58" cy="654.961" r="0.88461" fill="#FF94A8"/>
<circle cx="1307.58" cy="658.5" r="0.88461" fill="#FF94A8"/>
<circle cx="1311.12" cy="647.885" r="0.88461" fill="#FF94A8"/>
<circle cx="1311.12" cy="651.423" r="0.88461" fill="#FF94A8"/>
<circle cx="1311.12" cy="654.961" r="0.88461" fill="#FF94A8"/>
<circle cx="1311.12" cy="658.5" r="0.88461" fill="#FF94A8"/>
<circle cx="1289.88" cy="647.885" r="0.88461" fill="#FF94A8"/>
<circle cx="1289.88" cy="651.423" r="0.88461" fill="#FF94A8"/>
<circle cx="1289.88" cy="654.961" r="0.88461" fill="#FF94A8"/>
<circle cx="1289.88" cy="658.5" r="0.88461" fill="#FF94A8"/>
<circle cx="1293.42" cy="647.885" r="0.88461" fill="#FF94A8"/>
<circle cx="1293.42" cy="651.423" r="0.88461" fill="#FF94A8"/>
<circle cx="1293.42" cy="654.961" r="0.88461" fill="#FF94A8"/>
<circle cx="1293.42" cy="658.5" r="0.88461" fill="#FF94A8"/>
<circle cx="1296.96" cy="647.885" r="0.88461" fill="#FF94A8"/>
<circle cx="1296.96" cy="651.423" r="0.88461" fill="#FF94A8"/>
<circle cx="1296.96" cy="654.961" r="0.88461" fill="#FF94A8"/>
<circle cx="1296.96" cy="658.5" r="0.88461" fill="#FF94A8"/>
<circle cx="1300.5" cy="647.885" r="0.88461" fill="#FF94A8"/>
<circle cx="1300.5" cy="651.423" r="0.88461" fill="#FF94A8"/>
<circle cx="1300.5" cy="654.961" r="0.88461" fill="#FF94A8"/>
<circle cx="1300.5" cy="658.5" r="0.88461" fill="#FF94A8"/>
<path fill-rule="evenodd" clip-rule="evenodd" d="M41.9504 75.7169C41.1215 75.6635 40.5472 76.5308 40.9167 77.278L48.7493 93.1154C49.1188 93.8626 50.155 93.9293 50.6144 93.2355L60.3519 78.5301C60.8113 77.8363 60.3494 76.9023 59.5205 76.8489L41.9504 75.7169ZM43.4311 77.0647C42.755 77.0212 42.2867 77.7284 42.588 78.3378L48.9756 91.2535C49.277 91.8628 50.122 91.9172 50.4967 91.3514L58.4378 79.3589C58.8124 78.7931 58.4357 78.0314 57.7597 77.9879L43.4311 77.0647Z" fill="#FFC0CB"/>
<path fill-rule="evenodd" clip-rule="evenodd" d="M1328.46 44.9911C1328.21 44.2188 1327.22 44.004 1326.67 44.6046L1315.05 57.3334C1314.5 57.934 1314.81 58.8994 1315.6 59.0712L1332.42 62.7128C1333.21 62.8846 1333.9 62.1339 1333.65 61.3616L1328.46 44.9911ZM1327.76 46.8142C1327.56 46.1844 1326.75 46.0092 1326.3 46.499L1316.82 56.8796C1316.38 57.3693 1316.63 58.1567 1317.27 58.2968L1330.99 61.2665C1331.63 61.4067 1332.19 60.7945 1331.99 60.1646L1327.76 46.8142Z" fill="#FF94A8"/>
<path fill-rule="evenodd" clip-rule="evenodd" d="M316.093 526.409C316.093 524.526 314.567 523 312.684 523H285.409C283.526 523 282 524.526 282 526.409V553.684C282 555.567 283.526 557.093 285.409 557.093H312.684C314.567 557.093 316.093 555.567 316.093 553.684V526.409ZM315.412 527.091C315.412 525.208 313.885 523.682 312.002 523.682H286.432C284.549 523.682 283.023 525.208 283.023 527.091V552.661C283.023 554.544 284.549 556.071 286.432 556.071H312.002C313.885 556.071 315.412 554.544 315.412 552.661V527.091Z" fill="#DFA3A3"/>
<path fill-rule="evenodd" clip-rule="evenodd" d="M641.093 778.409C641.093 776.526 639.567 775 637.684 775H610.409C608.526 775 607 776.526 607 778.409V805.684C607 807.567 608.526 809.093 610.409 809.093H637.684C639.567 809.093 641.093 807.567 641.093 805.684V778.409ZM640.412 779.091C640.412 777.208 638.885 775.682 637.002 775.682H611.432C609.549 775.682 608.023 777.208 608.023 779.091V804.661C608.023 806.544 609.549 808.071 611.432 808.071H637.002C638.885 808.071 640.412 806.544 640.412 804.661V779.091Z" fill="#FF6C87"/>
<path fill-rule="evenodd" clip-rule="evenodd" d="M895.093 267.409C895.093 265.526 893.567 264 891.684 264H864.409C862.526 264 861 265.526 861 267.409V294.684C861 296.567 862.526 298.093 864.409 298.093H891.684C893.567 298.093 895.093 296.567 895.093 294.684V267.409ZM894.412 268.091C894.412 266.208 892.885 264.682 891.002 264.682H865.432C863.549 264.682 862.023 266.208 862.023 268.091V293.661C862.023 295.544 863.549 297.071 865.432 297.071H891.002C892.885 297.071 894.412 295.544 894.412 293.661V268.091Z" fill="#81BEE1" fill-opacity="0.62"/>
<path fill-rule="evenodd" clip-rule="evenodd" d="M680.093 109.409C680.093 107.526 678.567 106 676.684 106H649.409C647.526 106 646 107.526 646 109.409V136.684C646 138.567 647.526 140.093 649.409 140.093H676.684C678.567 140.093 680.093 138.567 680.093 136.684V109.409ZM679.412 110.091C679.412 108.208 677.885 106.682 676.002 106.682H650.432C648.549 106.682 647.023 108.208 647.023 110.091V135.661C647.023 137.544 648.549 139.071 650.432 139.071H676.002C677.885 139.071 679.412 137.544 679.412 135.661V110.091Z" fill="#FF6C87"/>
<path fill-rule="evenodd" clip-rule="evenodd" d="M1119.09 167.409C1119.09 165.526 1117.57 164 1115.68 164H1088.41C1086.53 164 1085 165.526 1085 167.409V194.684C1085 196.567 1086.53 198.093 1088.41 198.093H1115.68C1117.57 198.093 1119.09 196.567 1119.09 194.684V167.409ZM1118.41 168.091C1118.41 166.208 1116.89 164.682 1115 164.682H1089.43C1087.55 164.682 1086.02 166.208 1086.02 168.091V193.661C1086.02 195.544 1087.55 197.071 1089.43 197.071H1115C1116.89 197.071 1118.41 195.544 1118.41 193.661V168.091Z" fill="#BB6BD9"/>
<path fill-rule="evenodd" clip-rule="evenodd" d="M92.0934 635.409C92.0934 633.526 90.567 632 88.6841 632H61.4093C59.5264 632 58 633.526 58 635.409V662.684C58 664.567 59.5264 666.093 61.4093 666.093H88.6841C90.567 666.093 92.0934 664.567 92.0934 662.684V635.409ZM91.4115 636.091C91.4115 634.208 89.8851 632.682 88.0022 632.682H62.4321C60.5492 632.682 59.0228 634.208 59.0228 636.091V661.661C59.0228 663.544 60.5492 665.071 62.4321 665.071H88.0022C89.8851 665.071 91.4115 663.544 91.4115 661.661V636.091Z" fill="#9FA4FD"/>
</g>
<defs>
<clipPath id="clip0">
<rect width="1368" height="912" fill="white"/>
</clipPath>
</defs>
</svg>
